HIERARCHY
ROOT Hips
{
	OFFSET 0.000000 0.000000 0.000000
	CHANNELS 6 Xposition Yposition Zposition Zrotation Yrotation Xrotation 
	JOINT LHipJoint
	{
		OFFSET 0.000000 0.000000 0.000000
		CHANNELS 3 Zrotation Yrotation Xrotation
		JOINT LeftUpLeg
		{
			OFFSET 1.363060 -1.794630 0.839290
			CHANNELS 3 Zrotation Yrotation Xrotation
			JOINT LeftLeg
			{
				OFFSET 2.448110 -6.726130 0.000000
				CHANNELS 3 Zrotation Yrotation Xrotation
				JOINT LeftFoot
				{
					OFFSET 2.562200 -7.039590 0.000000
					CHANNELS 3 Zrotation Yrotation Xrotation
					JOINT LeftToeBase
					{
						OFFSET 0.157640 -0.433110 2.322550
						CHANNELS 3 Zrotation Yrotation Xrotation
						End Site
						{
							OFFSET 0.000000 0.000000 0.000000
						}
					}
				}
			}
		}
	}
	JOINT RHipJoint
	{
		OFFSET 0.000000 0.000000 0.000000
		CHANNELS 3 Zrotation Yrotation Xrotation
		JOINT RightUpLeg
		{
			OFFSET -1.305520 -1.794630 0.839290
			CHANNELS 3 Zrotation Yrotation Xrotation
			JOINT RightLeg
			{
				OFFSET -2.542530 -6.985550 0.000000
				CHANNELS 3 Zrotation Yrotation Xrotation
				JOINT RightFoot
				{
					OFFSET -2.568260 -7.056230 0.000000
					CHANNELS 3 Zrotation Yrotation Xrotation
					JOINT RightToeBase
					{
						OFFSET -0.164730 -0.452590 2.363150
						CHANNELS 3 Zrotation Yrotation Xrotation
						End Site
						{
							OFFSET 0.000000 0.000000 0.000000
						}
					}
				}
			}
		}
	}
	JOINT LowerBack
	{
		OFFSET 0.000000 0.000000 0.000000
		CHANNELS 3 Zrotation Yrotation Xrotation
		JOINT Spine
		{
			OFFSET 0.028270 2.035590 -0.193380
			CHANNELS 3 Zrotation Yrotation Xrotation
			JOINT Spine1
			{
				OFFSET 0.056720 2.048850 -0.042750
				CHANNELS 3 Zrotation Yrotation Xrotation
				JOINT Neck
				{
					OFFSET 0.000000 0.000000 0.000000
					CHANNELS 3 Zrotation Yrotation Xrotation
					JOINT Neck1
					{
						OFFSET -0.054170 1.746240 0.172020
						CHANNELS 3 Zrotation Yrotation Xrotation
						JOINT Head
						{
							OFFSET 0.104070 1.761360 -0.123970
							CHANNELS 3 Zrotation Yrotation Xrotation
							End Site
							{
								OFFSET 0.000000 0.000000 0.000000
							}
						}
					}
				}
				JOINT LeftShoulder
				{
					OFFSET 0.000000 0.000000 0.000000
					CHANNELS 3 Zrotation Yrotation Xrotation
					JOINT LeftArm
					{
						OFFSET 3.362410 1.200890 -0.311210
						CHANNELS 3 Zrotation Yrotation Xrotation
						JOINT LeftForeArm
						{
							OFFSET 4.983000 -0.000000 -0.000000
							CHANNELS 3 Zrotation Yrotation Xrotation
							JOINT LeftHand
							{
								OFFSET 3.483560 -0.000000 -0.000000
								CHANNELS 3 Zrotation Yrotation Xrotation
								JOINT LeftFingerBase
								{
									OFFSET 0.000000 0.000000 0.000000
									CHANNELS 3 Zrotation Yrotation Xrotation
									JOINT LeftHandIndex1
									{
										OFFSET 0.715260 -0.000000 -0.000000
										CHANNELS 3 Zrotation Yrotation Xrotation
										End Site
										{
											OFFSET 0.000000 0.000000 0.000000
										}
									}
								}
								JOINT LThumb
								{
									OFFSET 0.000000 0.000000 0.000000
									CHANNELS 3 Zrotation Yrotation Xrotation
									End Site
									{
										OFFSET 0.000000 0.000000 0.000000
									}
								}
							}
						}
					}
				}
				JOINT RightShoulder
				{
					OFFSET 0.000000 0.000000 0.000000
					CHANNELS 3 Zrotation Yrotation Xrotation
					JOINT RightArm
					{
						OFFSET -3.136600 1.374050 -0.404650
						CHANNELS 3 Zrotation Yrotation Xrotation
						JOINT RightForeArm
						{
							OFFSET -5.241900 -0.000000 -0.000000
							CHANNELS 3 Zrotation Yrotation Xrotation
							JOINT RightHand
							{
								OFFSET -3.444170 -0.000000 -0.000000
								CHANNELS 3 Zrotation Yrotation Xrotation
								JOINT RightFingerBase
								{
									OFFSET 0.000000 0.000000 0.000000
									CHANNELS 3 Zrotation Yrotation Xrotation
									JOINT RightHandIndex1
									{
										OFFSET -0.622530 -0.000000 -0.000000
										CHANNELS 3 Zrotation Yrotation Xrotation
										End Site
										{
											OFFSET 0.000000 0.000000 0.000000
										}
									}
								}
								JOINT RThumb
								{
									OFFSET 0.000000 0.000000 0.000000
									CHANNELS 3 Zrotation Yrotation Xrotation
									End Site
									{
										OFFSET 0.000000 0.000000 0.000000
									}
								}
							}
						}
					}
				}
			}
		}
	}
}
MOTION
Frames: 9
Frame Time: 0.008333
8.617753 17.494635 7.084405 2.473099 2.056876 29.056323 1.387345 -2.243061 -4.130139 -12.135186 -7.694941 -55.369523 6.885899 17.747119 51.348348 -1.119347 7.358352 -7.320908 2.698800 -10.190800 -29.596800 -3.140319 0.899649 -1.607290 12.790471 17.553106 -49.327127 -4.543759 -14.508115 41.391666 -0.764779 -6.884438 -26.766073 -0.844500 5.861600 -16.383500 -2.111338 0.273989 18.326204 0.658221 0.469931 -2.718679 3.228079 0.246866 2.009694 -7.177128 -4.462493 -10.177630 4.507837 -5.587155 8.817877 2.370100 -2.707100 3.751200 3.214069 -11.100989 1.270143 -52.464181 -57.101434 19.066541 16.530455 -17.373313 -5.628983 -2.169919 -2.294293 -18.130749 52.550584 51.285395 47.648700 -7.125000 0.000000 0.000000 136.239800 -84.542300 -140.149800 -3.265821 11.470081 2.514128 44.847459 56.202611 7.481435 -17.853768 16.361750 -5.070999 -2.348083 -2.372580 23.161307 -40.214916 16.251118 -15.941100 7.125000 0.000000 0.000000 -6.607500 -4.336500 -6.130600 
8.605165 17.459366 7.217655 2.348988 1.799895 29.496707 1.478223 -2.212981 -4.144006 -11.646161 -8.030721 -56.408884 7.330546 18.067901 52.692243 -1.299509 8.027538 -6.230961 2.961500 -10.632500 -31.050200 -3.165518 0.881026 -1.602475 13.314503 16.984129 -50.124613 -4.776561 -14.755413 42.314972 -0.809596 -6.090644 -25.816360 -0.684200 5.288300 -14.732800 -2.198747 0.349070 18.601107 0.654449 0.558403 -2.718292 3.234726 0.291481 1.828041 -7.041561 -4.379332 -9.916561 4.478162 -5.505200 8.593601 2.317100 -2.661300 3.555000 3.227994 -11.111186 1.273854 -52.156059 -56.753295 17.976909 16.836670 -17.785020 -5.697361 -2.140423 -2.270716 -18.297692 53.383938 51.002949 48.377400 -7.125000 0.000000 0.000000 134.612300 -84.142500 -138.939500 -3.240622 11.487686 2.562523 45.066737 56.414204 7.044700 -18.270399 16.605520 -5.189565 -2.339387 -2.408122 23.111295 -40.412094 16.150672 -16.017500 7.125000 0.000000 0.000000 -6.753200 -4.344200 -6.266800 
8.596886 17.402097 7.364628 2.248088 1.602184 29.791840 1.557777 -2.177472 -4.137964 -11.216064 -8.322970 -57.304458 7.873076 18.432946 54.382927 -1.083795 6.899975 -4.499552 2.572200 -9.968100 -28.873400 -3.191451 0.860219 -1.595762 13.733126 16.561967 -50.830053 -5.095746 -15.086816 43.581685 -0.856253 -5.450726 -25.112806 -0.553000 4.763700 -13.235900 -2.266493 0.400966 18.963873 0.657126 0.618320 -2.730188 3.282052 0.318507 1.648117 -7.041492 -4.361461 -9.934890 4.385287 -5.464363 8.290839 2.511500 -2.656000 3.797600 3.244980 -11.116704 1.305188 -52.143958 -56.246739 17.178127 17.425914 -18.501516 -5.852945 -2.078050 -2.257139 -18.988655 54.755169 50.647358 49.638900 -7.125000 0.000000 0.000000 133.392400 -83.441200 -138.357900 -3.231975 11.495459 2.615151 45.332427 56.474074 7.192835 -18.890215 17.043890 -5.358796 -2.284459 -2.475360 22.353770 -40.679228 15.881460 -16.016600 7.125000 0.000000 0.000000 -6.985700 -4.532800 -6.461000 
8.593711 17.319084 7.528612 2.179091 1.377853 29.973019 1.627386 -2.133277 -4.121871 -10.910226 -8.494308 -58.050110 8.522243 18.833042 56.374886 -1.069699 6.785455 -3.862921 2.545700 -9.920500 -28.719800 -3.216758 0.842367 -1.590355 13.823848 16.432797 -51.582738 -5.535537 -15.527950 45.304721 -0.924806 -4.922977 -24.761962 -0.446500 4.287300 -11.886300 -2.370686 0.453153 19.273274 0.659745 0.678531 -2.735473 3.326293 0.332213 1.582965 -6.921272 -4.238134 -9.987276 4.290397 -5.298121 8.331006 2.403000 -2.577100 3.808800 3.277947 -11.061737 1.306632 -52.072441 -55.572338 16.519267 18.149563 -19.428379 -6.062178 -1.968095 -2.280907 -19.838762 56.239021 50.839566 51.258700 -7.125000 0.000000 0.000000 137.065400 -82.547400 -142.396500 -3.233135 11.436875 2.821051 46.133286 56.127105 7.919867 -19.973929 18.033038 -5.652107 -2.184346 -2.510572 20.965707 -41.033745 15.854459 -16.190100 7.125000 0.000000 0.000000 -7.229000 -4.477600 -6.697100 
8.596886 17.215319 7.707792 2.167408 1.098132 30.086782 1.684875 -2.085886 -4.093562 -10.695263 -8.635960 -58.621899 9.241591 19.239065 58.556805 -1.162656 7.254160 -4.271553 2.754200 -10.286000 -29.908100 -3.233705 0.822286 -1.581618 13.764789 16.274886 -52.519770 -6.128474 -16.082491 47.561867 -1.025304 -4.459795 -24.772572 -0.447000 4.289400 -11.892400 -2.525938 0.478047 19.399107 0.653710 0.692218 -2.748830 3.336476 0.314520 1.673015 -6.845866 -4.121274 -10.287470 4.222770 -5.122914 8.536050 2.329200 -2.497400 3.988500 3.304930 -10.945857 1.318998 -52.344576 -54.782752 15.752546 18.904464 -20.394755 -6.297269 -1.869297 -2.294486 -19.940754 57.606070 51.379927 52.905200 -7.125000 0.000000 0.000000 142.288700 -81.601900 -147.733200 -3.263433 11.303434 3.118529 47.511837 55.733738 9.044943 -21.344965 19.306195 -6.034913 -2.098113 -2.514778 19.732147 -41.223632 16.032791 -16.396800 7.125000 0.000000 0.000000 -7.325100 -4.257500 -6.818100 
8.605732 17.097038 7.895363 2.199866 0.799314 30.049218 1.729076 -2.037085 -4.054230 -10.569798 -8.744489 -59.037567 10.026675 19.642637 60.937450 -1.181825 7.443052 -5.219034 2.927400 -10.576600 -30.864900 -3.248105 0.799740 -1.573541 13.860862 15.934307 -53.450798 -6.885132 -16.725926 50.350496 -1.094475 -4.371138 -25.140374 -0.437800 4.245700 -11.768900 -2.720988 0.492308 19.500100 0.651086 0.684428 -2.766611 3.375594 0.287529 1.764220 -6.785710 -3.991204 -10.458298 4.283247 -4.957655 8.920391 2.095100 -2.405700 3.796200 3.324973 -10.796909 1.399354 -53.260612 -53.814037 15.342560 19.861971 -21.576976 -6.598224 -1.805379 -2.246926 -19.654531 58.560976 51.383989 53.896300 -7.125000 0.000000 0.000000 143.295200 -81.042100 -148.994900 -3.308299 11.127981 3.436033 49.233666 55.248341 10.482083 -22.861725 20.777037 -6.482654 -1.997675 -2.505517 18.677380 -41.389889 16.039348 -16.457600 7.125000 0.000000 0.000000 -7.457400 -4.275800 -6.940800 
8.617639 16.956075 8.096317 2.221756 0.571892 29.711108 1.763036 -1.986554 -4.010878 -10.542511 -8.701249 -59.276877 10.867454 20.025002 63.461383 -1.136258 7.353849 -6.139142 3.194900 -11.004100 -32.293600 -3.266299 0.776149 -1.568410 14.045091 15.635075 -54.097258 -7.815063 -17.418253 53.581414 -1.150163 -3.360089 -23.899786 -0.302300 3.535300 -9.772900 -2.898611 0.489905 19.738482 0.658710 0.658857 -2.778560 3.444274 0.250329 1.825575 -6.711867 -3.867175 -10.601037 4.211438 -4.786075 9.121659 2.021200 -2.328300 3.896200 3.356893 -10.644011 1.524410 -54.519399 -52.508263 15.443690 21.041116 -23.049812 -6.990623 -1.747158 -2.163271 -19.094110 59.186326 51.161387 54.436000 -7.125000 0.000000 0.000000 142.874800 -80.750900 -148.828300 -3.346046 10.956868 3.748065 51.185987 54.481294 12.200881 -24.459239 22.456760 -6.991269 -1.887026 -2.468176 17.612859 -41.464812 16.112417 -16.486500 7.125000 0.000000 0.000000 -7.528800 -4.291300 -7.006200 
8.632722 16.789370 8.306002 2.186950 0.560339 29.210381 1.785474 -1.941997 -3.965826 -10.486448 -8.628936 -59.374402 11.815607 20.404864 66.281244 -1.026884 7.056514 -7.380426 3.314300 -11.187300 -32.914100 -3.294144 0.748073 -1.562761 14.118183 15.527126 -54.627922 -8.859398 -18.112471 57.108936 -1.203762 -3.055643 -23.798113 -0.368400 3.898900 -10.792400 -2.861133 0.397219 19.970845 0.692061 0.545028 -2.788019 3.511083 0.174815 1.893414 -6.667897 -3.704463 -10.691891 4.106082 -4.559007 9.316134 1.943200 -2.226300 3.973800 3.393145 -10.496821 1.683137 -56.205519 -50.853910 15.739441 22.384236 -24.756449 -7.484576 -1.687358 -2.070517 -17.793452 59.561289 51.299463 54.833800 -7.125000 0.000000 0.000000 144.479000 -80.506700 -150.376100 -3.380830 10.792949 4.005747 53.208843 53.499824 14.137660 -26.045744 24.232592 -7.533416 -1.779197 -2.411510 16.625433 -41.315283 16.246659 -16.411500 7.125000 0.000000 0.000000 -7.455600 -4.340100 -6.930100 
8.653815 16.591705 8.526575 2.073312 0.586016 28.708537 1.815120 -1.905800 -3.930246 -10.384883 -8.513521 -59.542825 12.870763 20.769299 69.379468 -0.892249 6.765365 -8.911041 3.291300 -11.152300 -32.795200 -3.329624 0.712880 -1.550559 14.006217 15.758838 -55.139368 -10.013850 -18.784762 60.856780 -1.400520 -2.427025 -24.316111 -0.234300 3.115300 -8.599900 -2.620177 0.322538 19.980570 0.719382 0.477985 -2.794975 3.462570 0.133968 2.026290 -6.656232 -3.606824 -10.767377 4.041525 -4.420694 9.475743 1.910600 -2.166400 4.034300 3.425097 -10.357250 1.837124 -58.300797 -48.995307 16.438037 23.947632 -26.714525 -8.113300 -1.615930 -1.973255 -16.474445 59.640637 51.456011 54.907900 -7.125000 0.000000 0.000000 146.080600 -80.433500 -151.795500 -3.434187 10.637289 4.216950 55.356043 52.190614 15.847686 -27.617563 26.152417 -8.166412 -1.661163 -2.337199 15.766019 -41.449379 16.426652 -16.529200 7.125000 0.000000 0.000000 -7.555700 -4.252100 -7.037300 
